{"title":"Silsila - 1981 - BD50 AVC - _T_R_A_C_K_E_R_ (Vision Squad)","uid":9307764,"size":48264328693,"categoryP":"video","categoryS":"hd___movies","magnet":"?xt=urn:btih:ac4a314c99b6c6d6df3fcdb99a94d18a11593a0e&amp;dn=Silsila+-+1981+-+BD50+AVC+-+_T_R_A_C_K_E_R_+%28Vision+Squad%29&amp;tr=udp%3A%2F%2Ftracker.openbittorrent.com%3A80&amp;tr=udp%3A%2F%2Fopen.demonii.com%3A1337&amp;tr=udp%3A%2F%2Ftracker.coppersurfer.tk%3A6969&amp;tr=udp%3A%2F%2Fexodus.desync.com%3A6969","seeders":0,"leechers":1,"uploader":null,"files":49,"time":1386346689,"description":"Silsila - 1981 - BD50 AVC - _T_R_A_C_K_E_R_ (Vision Squad)\n\n &lt;a href=&quot;\nhttp://anony.ws/i/2013/11/23/zts8S.jpg&quot; rel=&quot;nofollow&quot; target=&quot;_NEW&quot;&gt;\nhttp://anony.ws/i/2013/11/23/zts8S.jpg&lt;/a&gt;\n\n\nTechnical Information\n\n\nGeneral\nComplete name : Silsila - 1981 - BD50 AVC - _T_R_A_C_K_E_R_ (Vision Squad)\nFormat : Blu-ray movie\nDuration : 3h 0mn\nOverall bit rate mode : Variable\n\nVideo #1\n\nFormat : AVC\nFormat/Info : Advanced Video Codec\nFormat profile : &lt;a class=&quot;__cf_email__&quot; href=&quot;/cdn-cgi/l/email-protection&quot; data-cfemail=&quot;276f4e404f676b130916&quot;&gt;[email&amp;#160;protected]&lt;/a&gt;&lt;script data-cfhash='f9e31' type=&quot;text/javascript&quot;&gt;\n/* &lt;![CDATA[ */!function(){try{var t=&quot;currentScript&quot;in document?document.currentScript:function(){for(var t=document.getElementsByTagName(&quot;script&quot;),e=t.length;e--;)if(t[e].getAttribute(&quot;data-cfhash&quot;))return t[e]}();if(t&amp;&amp;t.previousSibling){var e,r,n,i,c=t.previousSibling,a=c.getAttribute(&quot;data-cfemail&quot;);if(a){for(e=&quot;&quot;,r=parseInt(a.substr(0,2),16),n=2;a.length-n;n+=2)i=parseInt(a.substr(n,2),16)^r,e+=String.fromCharCode(i);e=document.createTextNode(e),c.parentNode.replaceChild(e,c)}t.parentNode.removeChild(t);}}catch(u){}}()/* ]]&gt; */&lt;/script&gt;\nFormat settings, CABAC : Yes\nFormat settings, ReFrames : 4 frames\nFormat settings, GOP : M=3, N=18\nCodec ID : 27\nDuration : 10s 0ms\nBit rate mode : Variable\nMaximum bit rate : 38.0 Mbps\nWidth : 1 920 pixels\nHeight : 1 080 pixels\nDisplay aspect ratio : 16:9\nFrame rate : 24.000 fps\nStandard : NTSC\nColor space : YUV\nChroma subsampling : 4:2:0\nBit depth : 8 bits\nColor primaries : BT.709\nTransfer characteristics : BT.709\nMatrix coefficients : BT.709\nformat_identifier : HDMV\nSource : 00000.m2ts\n\nVideo #2\nFormat : AVC\nFormat/Info : Advanced Video Codec\nFormat profile : &lt;a class=&quot;__cf_email__&quot; href=&quot;/cdn-cgi/l/email-protection&quot; data-cfemail=&quot;b2fadbd5daf2fe869c83&quot;&gt;[email&amp;#160;protected]&lt;/a&gt;&lt;script data-cfhash='f9e31' type=&quot;text/javascript&quot;&gt;\n/* &lt;![CDATA[ */!function(){try{var t=&quot;currentScript&quot;in document?document.currentScript:function(){for(var t=document.getElementsByTagName(&quot;script&quot;),e=t.length;e--;)if(t[e].getAttribute(&quot;data-cfhash&quot;))return t[e]}();if(t&amp;&amp;t.previousSibling){var e,r,n,i,c=t.previousSibling,a=c.getAttribute(&quot;data-cfemail&quot;);if(a){for(e=&quot;&quot;,r=parseInt(a.substr(0,2),16),n=2;a.length-n;n+=2)i=parseInt(a.substr(n,2),16)^r,e+=String.fromCharCode(i);e=document.createTextNode(e),c.parentNode.replaceChild(e,c)}t.parentNode.removeChild(t);}}catch(u){}}()/* ]]&gt; */&lt;/script&gt;\nFormat settings, CABAC : Yes\nFormat settings, ReFrames : 4 frames\nCodec ID : 27\nDuration : 23s 125ms\nBit rate mode : Constant\nNominal bit rate : 20.0 Mbps\nWidth : 1 920 pixels\nHeight : 1 080 pixels\nDisplay aspect ratio : 16:9\nFrame rate : 24.000 fps\nStandard : NTSC\nColor space : YUV\nChroma subsampling : 4:2:0\nBit depth : 8 bits\nScan type : Progressive\nBits/(Pixel*Frame) : 0.402\nColor primaries : BT.709\nTransfer characteristics : BT.709\nMatrix coefficients : BT.709\nformat_identifier : HDMV\nSource : 00001.m2ts\n\nVideo #3\nFormat : AVC\nFormat/Info : Advanced Video Codec\nFormat profile : &lt;a class=&quot;__cf_email__&quot; href=&quot;/cdn-cgi/l/email-protection&quot; data-cfemail=&quot;165e7f717e565a223827&quot;&gt;[email&amp;#160;protected]&lt;/a&gt;&lt;script data-cfhash='f9e31' type=&quot;text/javascript&quot;&gt;\n/* &lt;![CDATA[ */!function(){try{var t=&quot;currentScript&quot;in document?document.currentScript:function(){for(var t=document.getElementsByTagName(&quot;script&quot;),e=t.length;e--;)if(t[e].getAttribute(&quot;data-cfhash&quot;))return t[e]}();if(t&amp;&amp;t.previousSibling){var e,r,n,i,c=t.previousSibling,a=c.getAttribute(&quot;data-cfemail&quot;);if(a){for(e=&quot;&quot;,r=parseInt(a.substr(0,2),16),n=2;a.length-n;n+=2)i=parseInt(a.substr(n,2),16)^r,e+=String.fromCharCode(i);e=document.createTextNode(e),c.parentNode.replaceChild(e,c)}t.parentNode.removeChild(t);}}catch(u){}}()/* ]]&gt; */&lt;/script&gt;\nFormat settings, CABAC : Yes\nFormat settings, ReFrames : 4 frames\nFormat settings, GOP : M=3, N=18\nCodec ID : 27\nDuration : 1h 13mn\nBit rate mode : Variable\nMaximum bit rate : 38.0 Mbps\nWidth : 1 920 pixels\nHeight : 1 080 pixels\nDisplay aspect ratio : 16:9\nFrame rate : 24.000 fps\nStandard : NTSC\nColor space : YUV\nChroma subsampling : 4:2:0\nBit depth : 8 bits\nScan type : Progressive\nColor primaries : BT.709\nTransfer characteristics : BT.709\nMatrix coefficients : BT.709\nformat_identifier : HDMV\nSource : 00002.m2ts\n\nVideo #4\nFormat : AVC\nFormat/Info : Advanced Video Codec\nFormat profile : &lt;a class=&quot;__cf_email__&quot; href=&quot;/cdn-cgi/l/email-protection&quot; data-cfemail=&quot;a2eacbc5cae2ee968c93&quot;&gt;[email&amp;#160;protected]&lt;/a&gt;&lt;script data-cfhash='f9e31' type=&quot;text/javascript&quot;&gt;\n/* &lt;![CDATA[ */!function(){try{var t=&quot;currentScript&quot;in document?document.currentScript:function(){for(var t=document.getElementsByTagName(&quot;script&quot;),e=t.length;e--;)if(t[e].getAttribute(&quot;data-cfhash&quot;))return t[e]}();if(t&amp;&amp;t.previousSibling){var e,r,n,i,c=t.previousSibling,a=c.getAttribute(&quot;data-cfemail&quot;);if(a){for(e=&quot;&quot;,r=parseInt(a.substr(0,2),16),n=2;a.length-n;n+=2)i=parseInt(a.substr(n,2),16)^r,e+=String.fromCharCode(i);e=document.createTextNode(e),c.parentNode.replaceChild(e,c)}t.parentNode.removeChild(t);}}catch(u){}}()/* ]]&gt; */&lt;/script&gt;\nFormat settings, CABAC : Yes\nFormat settings, ReFrames : 4 frames\nCodec ID : 27\nDuration : 1h 45mn\nBit rate mode : Variable\nMaximum bit rate : 38.0 Mbps\nWidth : 1 920 pixels\nHeight : 1 080 pixels\nDisplay aspect ratio : 16:9\nFrame rate : 24.000 fps\nStandard : NTSC\nColor space : YUV\nChroma subsampling : 4:2:0\nBit depth : 8 bits\nScan type : Progressive\nColor primaries : BT.709\nTransfer characteristics : BT.709\nMatrix coefficients : BT.709\nformat_identifier : HDMV\nSource : 00003.m2ts\n\nVideo #5\nFormat : AVC\nFormat/Info : Advanced Video Codec\nFormat profile : &lt;a class=&quot;__cf_email__&quot; href=&quot;/cdn-cgi/l/email-protection&quot; data-cfemail=&quot;bdf5d4dad5fdf189938c&quot;&gt;[email&amp;#160;protected]&lt;/a&gt;&lt;script data-cfhash='f9e31' type=&quot;text/javascript&quot;&gt;\n/* &lt;![CDATA[ */!function(){try{var t=&quot;currentScript&quot;in document?document.currentScript:function(){for(var t=document.getElementsByTagName(&quot;script&quot;),e=t.length;e--;)if(t[e].getAttribute(&quot;data-cfhash&quot;))return t[e]}();if(t&amp;&amp;t.previousSibling){var e,r,n,i,c=t.previousSibling,a=c.getAttribute(&quot;data-cfemail&quot;);if(a){for(e=&quot;&quot;,r=parseInt(a.substr(0,2),16),n=2;a.length-n;n+=2)i=parseInt(a.substr(n,2),16)^r,e+=String.fromCharCode(i);e=document.createTextNode(e),c.parentNode.replaceChild(e,c)}t.parentNode.removeChild(t);}}catch(u){}}()/* ]]&gt; */&lt;/script&gt;\nFormat settings, CABAC : Yes\nFormat settings, ReFrames : 4 frames\nCodec ID : 27\nDuration : 6s 0ms\nBit rate mode : Constant\nBit rate : 18.5 Mbps\nNominal bit rate : 20.0 Mbps\nWidth : 1 920 pixels\nHeight : 1 080 pixels\nDisplay aspect ratio : 16:9\nFrame rate : 24.000 fps\nStandard : NTSC\nColor space : YUV\nChroma subsampling : 4:2:0\nBit depth : 8 bits\nScan type : Progressive\nBits/(Pixel*Frame) : 0.372\nStream size : 13.2 MiB (97%)\nColor primaries : BT.709\nTransfer characteristics : BT.709\nMatrix coefficients : BT.709\nformat_identifier : HDMV\nSource : 00004.m2ts\n\nAudio #1\nFormat : AC-3\nFormat/Info : Audio Coding 3\nMode extension : CM (complete main)\nFormat settings, Endianness : Big\nCodec ID : 129\nDuration : 992ms\nBit rate mode : Constant\nBit rate : 640 Kbps\nChannel(s) : 6 channels\nChannel positions : Front: L C R, Side: L R, LFE\nSampling rate : 48.0 KHz\nBit depth : 16 bits\nCompression mode : Lossy\nStream size : 77.5 KiB (1%)\nLanguage : Hindi\nbsid : 8\ndialnorm : -22\ndialnorm/String : -22 dB\ncompr : -0.28\ncompr/String : -0.28 dB\nacmod : 7\nlfeon : 1\ndialnorm_Average : -22\ndialnorm_Average/String : -22 dB\ndialnorm_Minimum : -22\ndialnorm_Minimum/String : -22 dB\ndialnorm_Maximum : -22\ndialnorm_Maximum/String : -22 dB\ndialnorm_Count : 31\ncompr_Average : -0.28\ncompr_Average/String : -0.28 dB\ncompr_Minimum : -0.28\ncompr_Minimum/String : -0.28 dB\ncompr_Maximum : -0.28\ncompr_Maximum/String : -0.28 dB\ncompr_Count : 31\nformat_identifier : AC-3\nSource : 00000.m2ts\n\nAudio #2\nFormat : DTS\nFormat/Info : Digital Theater Systems\nFormat profile : MA / Core\nMode : 16\nFormat settings, Endianness : Big\nMuxing mode : Stream extension\nCodec ID : 134\nDuration : 1s 13ms\nBit rate mode : Variable\nBit rate : Unknown / 1 509 Kbps\nChannel(s) : 6 channels\nChannel positions : Front: L C R, Side: L R, LFE\nSampling rate : 48.0 KHz\nBit depth : 16 bits\nCompression mode : Lossless / Lossy\nLanguage : Hindi\nSource : 00000.m2ts\n\nAudio #3\nFormat : AC-3\nFormat/Info : Audio Coding 3\nMode extension : CM (complete main)\nFormat settings, Endianness : Big\nCodec ID : 129\nDuration : 23s 136ms\nBit rate mode : Constant\nBit rate : 640 Kbps\nChannel(s) : 6 channels\nChannel positions : Front: L C R, Side: L R, LFE\nSampling rate : 48.0 KHz\nBit depth : 16 bits\nCompression mode : Lossy\nStream size : 1.77 MiB (3%)\nLanguage : Hindi\nbsid : 8\ndialnorm : -22\ndialnorm/String : -22 dB\ncompr : -0.28\ncompr/String : -0.28 dB\nacmod : 7\nlfeon : 1\ndialnorm_Average : -22\ndialnorm_Average/String : -22 dB\ndialnorm_Minimum : -22\ndialnorm_Minimum/String : -22 dB\ndialnorm_Maximum : -22\ndialnorm_Maximum/String : -22 dB\ndialnorm_Count : 723\ncompr_Average : -4.38\ncompr_Average/String : -4.38 dB\ncompr_Minimum : -13.84\ncompr_Minimum/String : -13.84 dB\ncompr_Maximum : -0.28\ncompr_Maximum/String : -0.28 dB\ncompr_Count : 723\ndynrng_Average : 5.89\ndynrng_Average/String : 5.89 dB\ndynrng_Minimum : -15.70\ndynrng_Minimum/String : -15.70 dB\ndynrng_Maximum : 23.94\ndynrng_Maximum/String : 23.94 dB\ndynrng_Count : 723\nformat_identifier : AC-3\nSource : 00001.m2ts\n\nAudio #4\nFormat : DTS\nFormat/Info : Digital Theater Systems\nFormat profile : MA / Core\nMode : 16\nFormat settings, Endianness : Big\nMuxing mode : Stream extension\nCodec ID : 134\nDuration : 23s 115ms\nBit rate mode : Variable\nBit rate : Unknown / 1 509 Kbps\nChannel(s) : 6 channels\nChannel positions : Front: L C R, Side: L R, LFE\nSampling rate : 48.0 KHz\nBit depth : 16 bits\nCompression mode : Lossless / Lossy\nLanguage : Hindi\nSource : 00001.m2ts\n\nAudio #5\nFormat : AC-3\nFormat/Info : Audio Coding 3\nMode extension : CM (complete main)\nFormat settings, Endianness : Big\nCodec ID : 129\nDuration : 1h 13mn\nBit rate mode : Constant\nBit rate : 640 Kbps\nChannel(s) : 6 channels\nChannel positions : Front: L C R, Side: L R, LFE\nSampling rate : 48.0 KHz\nBit depth : 16 bits\nCompression mode : Lossy\nStream size : 338 MiB (2%)\nLanguage : Hindi\nbsid : 8\ndialnorm : -31\ndialnorm/String : -31 dB\ncompr : -0.28\ncompr/String : -0.28 dB\nacmod : 7\nlfeon : 1\ndialnorm_Average : -31\ndialnorm_Average/String : -31 dB\ndialnorm_Minimum : -31\ndialnorm_Minimum/String : -31 dB\ndialnorm_Maximum : -31\ndialnorm_Maximum/String : -31 dB\ndialnorm_Count : 1107\ncompr_Average : -0.37\ncompr_Average/String : -0.37 dB\ncompr_Minimum : -4.53\ncompr_Minimum/String : -4.53 dB\ncompr_Maximum : -0.28\ncompr_Maximum/String : -0.28 dB\ncompr_Count : 1107\ndynrng_Average : 0.68\ndynrng_Average/String : 0.68 dB\ndynrng_Minimum : -15.70\ndynrng_Minimum/String : -15.70 dB\ndynrng_Maximum : 16.42\ndynrng_Maximum/String : 16.42 dB\ndynrng_Count : 1107\nformat_identifier : AC-3\nSource : 00002.m2ts\n\nAudio #6\nFormat : DTS\nFormat/Info : Digital Theater Systems\nFormat profile : MA / Core\nMode : 16\nFormat settings, Endianness : Big\nMuxing mode : Stream extension\nCodec ID : 134\nDuration : 1h 13mn\nBit rate mode : Variable\nBit rate : Unknown / 1 509 Kbps\nChannel(s) : 6 channels\nChannel positions : Front: L C R, Side: L R, LFE\nSampling rate : 48.0 KHz\nBit depth : 16 bits\nCompression mode : Lossless / Lossy\nLanguage : Hindi\nSource : 00002.m2ts\n\nAudio #7\nFormat : AC-3\nFormat/Info : Audio Coding 3\nMode extension : CM (complete main)\nFormat settings, Endianness : Big\nCodec ID : 129\nDuration : 1h 45mn\nBit rate mode : Constant\nBit rate : 640 Kbps\nChannel(s) : 6 channels\nChannel positions : Front: L C R, Side: L R, LFE\nSampling rate : 48.0 KHz\nBit depth : 16 bits\nCompression mode : Lossy\nStream size : 484 MiB (2%)\nLanguage : Hindi\nbsid : 8\ndialnorm : -31\ndialnorm/String : -31 dB\ncompr : -0.28\ncompr/String : -0.28 dB\ndynrng : 16.42\ndynrng/String : 16.42 dB\nacmod : 7\nlfeon : 1\ndialnorm_Average : -31\ndialnorm_Average/String : -31 dB\ndialnorm_Minimum : -31\ndialnorm_Minimum/String : -31 dB\ndialnorm_Maximum : -31\ndialnorm_Maximum/String : -31 dB\ndialnorm_Count : 908\ncompr_Average : -2.22\ncompr_Average/String : -2.22 dB\ncompr_Minimum : -10.10\ncompr_Minimum/String : -10.10 dB\ncompr_Maximum : -0.28\ncompr_Maximum/String : -0.28 dB\ncompr_Count : 908\ndynrng_Average : 3.71\ndynrng_Average/String : 3.71 dB\ndynrng_Minimum : -15.70\ndynrng_Minimum/String : -15.70 dB\ndynrng_Maximum : 21.94\ndynrng_Maximum/String : 21.94 dB\ndynrng_Count : 908\nformat_identifier : AC-3\nSource : 00003.m2ts\n\nAudio #8\nFormat : DTS\nFormat/Info : Digital Theater Systems\nFormat profile : MA / Core\nMode : 16\nFormat settings, Endianness : Big\nMuxing mode : Stream extension\nCodec ID : 134\nDuration : 1h 45mn\nBit rate mode : Variable\nBit rate : Unknown / 1 509 Kbps\nChannel(s) : 6 channels\nChannel positions : Front: L C R, Side: L R, LFE\nSampling rate : 48.0 KHz\nBit depth : 16 bits\nCompression mode : Lossless / Lossy\nLanguage : Hindi\nSource : 00003.m2ts\n\nText #1\nFormat : PGS\nCodec ID : 144\nDuration : 1h 13mn\nLanguage : English\nSource : 00002.m2ts\n\nText #2\nFormat : PGS\nCodec ID : 144\nDuration : 1h 13mn\nLanguage : Arabic\nSource : 00002.m2ts\n\nText #3\nFormat : PGS\nCodec ID : 144\nDuration : 1h 13mn\nLanguage : Tamil\nSource : 00002.m2ts\n\nText #4\nFormat : PGS\nCodec ID : 144\nDuration : 1h 13mn\nLanguage : Telugu\nSource : 00002.m2ts\n\nText #5\nFormat : PGS\nCodec ID : 144\nDuration : 1h 45mn\nDelay relative to video : 4s 333ms\nLanguage : English\nSource : 00003.m2ts\n\nText #6\nFormat : PGS\nCodec ID : 144\nDuration : 1h 45mn\nDelay relative to video : 4s 333ms\nLanguage : Arabic\nSource : 00003.m2ts\n\nText #7\nFormat : PGS\nCodec ID : 144\nDuration : 1h 45mn\nDelay relative to video : 4s 333ms\nLanguage : Tamil\nSource : 00003.m2ts\n\nText #8\nFormat : PGS\nCodec ID : 144\nDuration : 1h 45mn\nDelay relative to video : 4s 333ms\nLanguage : Telugu\nSource : 00003.m2ts\n\nScreens :\n\n","torrent":{"xt":"urn:btih:ac4a314c99b6c6d6df3fcdb99a94d18a11593a0e","amp;dn":"Silsila+-+1981+-+BD50+AVC+-+_T_R_A_C_K_E_R_+%28Vision+Squad%29","amp;tr":["udp%3A%2F%2Ftracker.openbittorrent.com%3A80","udp%3A%2F%2Fopen.demonii.com%3A1337","udp%3A%2F%2Ftracker.coppersurfer.tk%3A6969","udp%3A%2F%2Fexodus.desync.com%3A6969"],"infoHash":"ac4a314c99b6c6d6df3fcdb99a94d18a11593a0e","infoHashBuffer":{"type":"Buffer","data":[172,74,49,76,153,182,198,214,223,63,205,185,154,148,209,138,17,89,58,14]},"announce":[],"urlList":[]}}